<svg width="660" height="270" viewBox="0 0 660 270" fill="none" xmlns="http://www.w3.org/2000/svg">
<path d="M271.447 101.04C271.447 108.433 268.217 112.203 261.826 112.127C255.435 112.051 252.205 108.358 252.205 101.04V70H247.14C244.35 70 242 72.6626 242 75.3947V102.223C242 114.935 249.051 120.994 261.826 120.994C274.381 120.994 281.583 114.562 281.583 102.223V70H271.447V101.04Z" fill="#331ED3"/>
<path d="M298.512 70.3731H289.551V120.26H298.512V70.3731Z" fill="#331ED3"/>
<path d="M318.042 110.799C317.433 110.457 316.955 110.084 316.61 109.692C316.214 109.199 315.95 108.655 315.799 108.067V91.5852H324.245V82.7879H315.799V72.7385H306.838V109.319C306.838 111.88 307.366 113.891 308.415 115.34C309.465 116.794 310.627 117.888 311.903 118.628C313.417 119.514 315.133 120.058 317.043 120.254H326.004V111.317H320.424C319.45 111.317 318.652 111.147 318.042 110.799Z" fill="#331ED3"/>
<path d="M338.604 84.4133C337.328 85.1533 336.153 86.2474 335.078 87.702C334.004 89.1566 333.463 91.1615 333.463 93.7228V120.254H342.493V94.9814C342.638 94.3932 342.908 93.8493 343.304 93.356C343.643 92.9639 344.121 92.5908 344.737 92.2493C345.346 91.9077 346.144 91.7307 347.125 91.7307H354.025V82.7879H343.744C341.834 82.984 340.118 83.5279 338.604 84.4133Z" fill="#331ED3"/>
<path d="M574.467 89.846C573.656 88.442 572.726 87.2719 571.677 86.3359C570.621 85.3999 569.559 84.6347 568.485 84.0465C565.94 82.6678 563.049 81.9278 559.819 81.8266C556.539 81.9278 553.623 82.6678 551.078 84.0465C550.003 84.6347 548.935 85.3999 547.886 86.3359C546.83 87.2719 545.9 88.442 545.096 89.846C544.285 91.25 543.638 92.9133 543.148 94.8359C542.657 96.7586 542.412 98.9974 542.412 101.559C542.412 104.12 542.657 106.365 543.148 108.282C543.638 110.204 544.285 111.855 545.096 113.234C545.906 114.612 546.83 115.757 547.886 116.668C548.935 117.578 550.003 118.331 551.078 118.919C553.623 120.247 556.539 120.937 559.819 120.987C563.049 120.937 565.94 120.247 568.485 118.919C569.559 118.331 570.627 117.578 571.677 116.668C572.726 115.757 573.663 114.612 574.467 113.234C575.278 111.855 575.937 110.204 576.453 108.282C576.968 106.359 577.226 104.12 577.226 101.559C577.226 98.9974 576.968 96.7522 576.453 94.8359C575.937 92.9133 575.278 91.25 574.467 89.846ZM567.9 105.107C567.705 106.391 567.316 107.58 566.725 108.693C566.141 109.799 565.292 110.723 564.193 111.463C563.093 112.203 561.635 112.57 559.825 112.57C558.015 112.57 556.558 112.203 555.458 111.463C554.358 110.723 553.51 109.799 552.925 108.693C552.341 107.586 551.945 106.391 551.75 105.107C551.556 103.823 551.455 102.647 551.455 101.559C551.455 100.477 551.549 99.2946 551.75 98.0108C551.945 96.7269 552.335 95.5379 552.925 94.4248C553.51 93.3181 554.358 92.3947 555.458 91.6548C556.558 90.9148 558.015 90.548 559.825 90.548C561.635 90.548 563.093 90.9148 564.193 91.6548C565.292 92.3947 566.141 93.3181 566.725 94.4248C567.31 95.5316 567.705 96.7269 567.9 98.0108C568.095 99.2946 568.196 100.477 568.196 101.559C568.189 102.647 568.095 103.829 567.9 105.107Z" fill="#331ED3"/>
<path d="M612.692 87.6641C611.517 86.1842 610.242 85.0521 608.872 84.2615C607.502 83.471 606.201 82.8955 604.982 82.5223C603.757 82.1555 602.695 81.9468 601.79 81.8962C600.885 81.8456 600.357 81.8203 600.212 81.8203C600.018 81.8203 599.477 81.8456 598.597 81.8962C597.718 81.9468 596.662 82.1555 595.437 82.5223C594.211 82.8891 592.917 83.471 591.547 84.2615C590.177 85.0521 588.901 86.1842 587.726 87.6641C586.551 89.144 585.583 91.0033 584.823 93.2422C584.063 95.4874 583.686 98.2574 583.686 101.559V120.26H592.647V101.559C592.647 100.477 592.741 99.3642 592.942 98.2321C593.137 97.1001 593.507 96.0629 594.042 95.1269C594.582 94.1908 595.336 93.4129 596.316 92.7995C597.297 92.186 598.591 91.8761 600.206 91.8761C601.821 91.8761 603.116 92.186 604.096 92.7995C605.076 93.4193 605.83 94.1908 606.371 95.1269C606.911 96.0629 607.276 97.1001 607.47 98.2321C607.665 99.3642 607.766 100.477 607.766 101.559V120.26H616.727V101.559C616.727 98.2574 616.35 95.4874 615.589 93.2422C614.835 91.0033 613.868 89.144 612.692 87.6641Z" fill="#331ED3"/>
<path d="M656.938 103.627C656.228 102.394 655.31 101.388 654.186 100.597C653.061 99.8069 651.798 99.2061 650.403 98.7887C649.008 98.3713 647.625 98.074 646.255 97.9033C644.885 97.7325 643.597 97.6313 642.403 97.606C641.203 97.5807 640.26 97.5681 639.575 97.5681C637.715 97.5681 636.195 97.2961 635.019 96.7522C633.844 96.2083 633.26 95.2976 633.26 94.0201C633.26 92.692 633.869 91.6421 635.095 90.8769C636.32 90.1116 637.935 89.7321 639.94 89.7321C642.629 89.7321 644.502 90.1875 645.558 91.0982C646.607 92.0089 647.135 93.2548 647.135 94.8296H656.096C656.146 91.8761 655.543 89.5361 654.299 87.8095C653.048 86.083 651.559 84.7801 649.818 83.8947C648.078 83.0093 646.306 82.4401 644.496 82.1935C642.686 81.9468 641.241 81.8266 640.166 81.8266C638.111 81.8266 636.151 82.0733 634.291 82.5666C632.43 83.0599 630.778 83.7999 629.332 84.7865C627.887 85.7731 626.725 87.0379 625.845 88.5937C624.965 90.1432 624.525 91.9583 624.525 94.0264C624.525 95.8984 624.965 97.5238 625.845 98.9025C626.725 100.281 627.875 101.426 629.295 102.337C630.715 103.247 632.305 103.924 634.071 104.367C635.83 104.81 637.596 105.056 639.355 105.107C641.655 105.157 643.453 105.303 644.753 105.549C646.048 105.796 647.003 106.106 647.619 106.473C648.228 106.84 648.612 107.251 648.756 107.693C648.901 108.136 648.976 108.579 648.976 109.022C648.976 109.414 648.913 109.837 648.794 110.28C648.668 110.723 648.316 111.153 647.732 111.57C647.148 111.988 646.224 112.323 644.98 112.57C643.729 112.816 641.957 112.917 639.657 112.867C637.797 112.816 636.327 112.582 635.252 112.165C634.177 111.747 633.367 111.241 632.826 110.647C632.286 110.059 631.947 109.452 631.796 108.838C631.651 108.225 631.576 107.693 631.576 107.251H622.615C622.615 109.565 623.004 111.526 623.79 113.126C624.575 114.726 625.562 116.035 626.762 117.041C627.963 118.053 629.282 118.824 630.727 119.368C632.173 119.912 633.543 120.304 634.837 120.551C636.132 120.798 637.269 120.93 638.249 120.956C639.23 120.981 639.864 120.994 640.16 120.994C641.775 120.994 643.622 120.867 645.702 120.627C647.782 120.38 649.73 119.811 651.54 118.926C653.35 118.04 654.883 116.744 656.127 115.042C657.378 113.341 658 111.064 658 108.206C658 106.391 657.642 104.86 656.938 103.627Z" fill="#331ED3"/>
<path d="M425.474 70C422.979 70 421.364 71.1068 420.629 73.3266L401.293 120.26H412.233L427.748 80.1254L438.582 109.983L442.956 120.254H453.751L433.699 70H425.474Z" fill="#331ED3"/>
<path d="M427.522 120.254C430.982 120.254 433.787 117.431 433.787 113.948C433.787 110.466 430.982 107.643 427.522 107.643C424.062 107.643 421.257 110.466 421.257 113.948C421.257 117.431 424.062 120.254 427.522 120.254Z" fill="#331ED3"/>
<path d="M485.285 88.0372V101.413H485.278C485.278 101.464 485.285 101.515 485.285 101.559C485.285 102.64 485.184 103.823 484.989 105.107C484.795 106.391 484.392 107.58 483.777 108.693C483.161 109.799 482.306 110.723 481.206 111.463C480.107 112.203 478.649 112.57 476.839 112.57C475.029 112.57 473.571 112.203 472.472 111.463C471.372 110.723 470.524 109.799 469.939 108.693C469.355 107.586 468.959 106.391 468.764 105.107C468.569 103.823 468.469 102.647 468.469 101.559C468.469 100.477 468.563 99.2946 468.764 98.0108C468.959 96.7269 469.349 95.5379 469.939 94.4249C470.524 93.3181 471.372 92.3947 472.472 91.6548C473.571 90.9148 475.029 90.548 476.839 90.548C478.649 90.548 480.107 90.9148 481.206 91.6548C481.382 91.7686 481.539 91.9014 481.697 92.0279V83.8694C481.125 83.5026 480.553 83.1864 479.994 82.9334C478.573 82.3452 477.103 81.9721 475.589 81.8266C472.553 81.9278 469.858 82.6678 467.507 84.0465C466.477 84.6347 465.49 85.3999 464.535 86.3359C463.58 87.2719 462.725 88.442 461.965 89.846C461.204 91.25 460.595 92.9133 460.13 94.8359C459.665 96.7586 459.432 98.9974 459.432 101.559C459.432 104.12 459.677 106.365 460.168 108.282C460.658 110.204 461.305 111.855 462.116 113.234C462.926 114.612 463.85 115.757 464.906 116.668C465.955 117.579 467.023 118.331 468.098 118.919C470.643 120.247 473.559 120.937 476.839 120.987C480.019 120.937 482.884 120.247 485.429 118.919C486.504 118.331 487.56 117.579 488.59 116.668C489.614 115.757 490.538 114.6 491.342 113.196C492.153 111.792 492.8 110.128 493.291 108.206C493.781 106.283 494.026 104.044 494.026 101.483V70.3731H485.285V88.0372Z" fill="#331ED3"/>
<path d="M390.39 87.1138C388.995 85.4126 387.217 84.1097 385.068 83.199C382.912 82.2883 380.292 81.833 377.213 81.833C373.932 81.9342 371.017 82.6741 368.472 84.0528C367.397 84.641 366.329 85.4063 365.279 86.3423C364.224 87.2783 363.294 88.4483 362.489 89.8523C361.679 91.2563 361.031 92.9196 360.541 94.8423C360.051 96.7649 359.806 99.0037 359.806 101.565C359.806 104.126 360.038 106.372 360.503 108.288C360.968 110.211 361.578 111.861 362.338 113.24C363.099 114.619 363.953 115.763 364.909 116.674C365.864 117.585 366.857 118.337 367.881 118.926C370.231 120.254 372.921 120.943 375.956 120.994C377.47 120.892 378.941 120.576 380.361 120.032C380.926 119.805 381.492 119.507 382.064 119.16V111.09C381.9 111.216 381.743 111.343 381.574 111.463C380.474 112.203 379.016 112.57 377.206 112.57C375.396 112.57 373.939 112.203 372.839 111.463C371.739 110.723 370.891 109.799 370.306 108.693C369.722 107.586 369.326 106.391 369.131 105.107C368.937 103.823 368.836 102.647 368.836 101.559C368.836 100.477 368.937 99.2946 369.131 98.0108C369.326 96.7269 369.716 95.5379 370.306 94.4249C370.891 93.3181 371.739 92.3947 372.839 91.6548C373.939 90.9148 375.396 90.548 377.206 90.548C379.117 90.548 380.631 90.8705 381.756 91.5093C382.881 92.1481 383.729 93.0019 384.288 94.058C384.848 95.1205 385.218 96.3032 385.388 97.606C385.558 98.8962 385.646 100.205 385.646 101.521V115.087V120.26H394.387V101.635C394.387 98.5294 394.066 95.7593 393.432 93.3181C392.803 90.8832 391.785 88.8088 390.39 87.1138Z" fill="#331ED3"/>
<path d="M526.847 87.1518C526.847 87.1455 526.841 87.1455 526.841 87.1391V101.236C526.841 101.344 526.847 101.458 526.847 101.559C526.847 102.64 526.746 103.823 526.552 105.107C526.357 106.391 525.955 107.58 525.339 108.693C524.729 109.799 523.868 110.723 522.769 111.463C521.669 112.203 520.211 112.57 518.401 112.57C516.592 112.57 515.134 112.203 514.034 111.463C512.934 110.723 512.086 109.799 511.502 108.693C510.917 107.586 510.521 106.391 510.326 105.107C510.132 103.823 510.031 102.647 510.031 101.559C510.031 100.477 510.132 99.2946 510.326 98.0108C510.521 96.7269 510.911 95.5379 511.502 94.4249C512.086 93.3181 512.934 92.3947 514.034 91.6548C515.134 90.9148 516.592 90.548 518.401 90.548C520.211 90.548 521.669 90.9148 522.769 91.6548C522.938 91.7686 523.095 91.8951 523.253 92.0216V83.8631C522.681 83.4963 522.115 83.1801 521.556 82.9334C520.136 82.3452 518.665 81.9721 517.151 81.8266C514.116 81.9278 511.42 82.6678 509.076 84.0465C508.045 84.6347 507.059 85.3999 506.104 86.3359C505.148 87.2719 504.294 88.442 503.533 89.846C502.773 91.25 502.164 92.9133 501.698 94.8359C501.233 96.7586 501.001 98.9974 501.001 101.559C501.001 104.12 501.246 106.365 501.736 108.282C502.226 110.204 502.874 111.855 503.684 113.234C504.495 114.612 505.419 115.757 506.474 116.668C507.524 117.579 508.592 118.331 509.667 118.919C512.212 120.247 515.127 120.937 518.408 120.987C521.587 120.937 524.453 120.247 526.998 118.919C528.072 118.331 529.128 117.579 530.159 116.668C531.189 115.757 532.107 114.6 532.911 113.196C533.722 111.792 534.369 110.128 534.859 108.206C535.349 106.283 535.594 104.044 535.594 101.483V70.3731H526.853V87.1518H526.847Z" fill="#331ED3"/>
<path d="M266.76 170.64V175H245.76V147H266.2V151.36H250.96V158.64H264.48V162.92H250.96V170.64H266.76ZM276.957 147H282.157V170.6H296.797V175H276.957V147ZM326.302 170.64V175H305.302V147H325.742V151.36H310.502V158.64H324.022V162.92H310.502V170.64H326.302ZM362.219 175L362.179 156.44L352.979 171.8H350.659L341.459 156.68V175H336.499V147H340.779L351.899 165.56L362.819 147H367.099L367.139 175H362.219ZM400.102 170.64V175H379.102V147H399.542V151.36H384.302V158.64H397.822V162.92H384.302V170.64H400.102ZM435.179 147V175H430.899L415.459 156.04V175H410.299V147H414.579L430.019 165.96V147H435.179ZM452.762 151.4H443.482V147H467.242V151.4H457.962V175H452.762V151.4ZM488.234 175.4C485.38 175.4 482.807 174.787 480.514 173.56C478.22 172.307 476.42 170.587 475.114 168.4C473.807 166.187 473.154 163.72 473.154 161C473.154 158.28 473.807 155.827 475.114 153.64C476.42 151.427 478.22 149.707 480.514 148.48C482.807 147.227 485.38 146.6 488.234 146.6C491.087 146.6 493.66 147.227 495.954 148.48C498.247 149.707 500.047 151.413 501.354 153.6C502.66 155.787 503.314 158.253 503.314 161C503.314 163.747 502.66 166.213 501.354 168.4C500.047 170.587 498.247 172.307 495.954 173.56C493.66 174.787 491.087 175.4 488.234 175.4ZM488.234 170.84C490.1 170.84 491.78 170.427 493.274 169.6C494.767 168.747 495.94 167.573 496.794 166.08C497.647 164.56 498.074 162.867 498.074 161C498.074 159.133 497.647 157.453 496.794 155.96C495.94 154.44 494.767 153.267 493.274 152.44C491.78 151.587 490.1 151.16 488.234 151.16C486.367 151.16 484.687 151.587 483.194 152.44C481.7 153.267 480.527 154.44 479.674 155.96C478.82 157.453 478.394 159.133 478.394 161C478.394 162.867 478.82 164.56 479.674 166.08C480.527 167.573 481.7 168.747 483.194 169.6C484.687 170.427 486.367 170.84 488.234 170.84ZM531.546 175L525.826 166.8C525.586 166.827 525.226 166.84 524.746 166.84H518.426V175H513.226V147H524.746C527.172 147 529.279 147.4 531.066 148.2C532.879 149 534.266 150.147 535.226 151.64C536.186 153.133 536.666 154.907 536.666 156.96C536.666 159.067 536.146 160.88 535.106 162.4C534.092 163.92 532.626 165.053 530.706 165.8L537.146 175H531.546ZM531.426 156.96C531.426 155.173 530.839 153.8 529.666 152.84C528.492 151.88 526.772 151.4 524.506 151.4H518.426V162.56H524.506C526.772 162.56 528.492 162.08 529.666 161.12C530.839 160.133 531.426 158.747 531.426 156.96ZM562.338 147H567.538V170.6H582.178V175H562.338V147ZM590.683 147H595.883V175H590.683V147ZM613.537 151.4H604.257V147H628.017V151.4H618.737V175H613.537V151.4ZM657.319 170.64V175H636.319V147H656.759V151.36H641.519V158.64H655.039V162.92H641.519V170.64H657.319Z" fill="#D822FD"/>
<g filter="url(#filter0_d)">
<circle cx="115" cy="120" r="90" fill="white"/>
</g>
<circle cx="115" cy="120" r="81" fill="url(#paint0_linear)"/>
<path d="M65.9033 99.94C65.9059 99.94 65.9059 99.94 65.9059 99.94C65.9059 99.9426 65.9084 99.9426 65.9084 99.9426C65.911 99.9451 65.9161 99.9477 65.9238 99.9502C65.9752 99.8656 66.0291 99.7835 66.083 99.7014C71.3201 93.3033 79.0346 89.0115 87.7708 88.2957C88.6282 88.2239 89.4934 88.188 90.3688 88.188C92.2198 88.188 94.0322 88.347 95.7933 88.6574C105.767 90.3942 114.118 96.8384 118.477 105.615C122.135 112.982 132.117 113.947 136.943 107.752C136.948 107.744 136.953 107.736 136.961 107.728C137.272 107.292 137.57 106.846 137.852 106.387C137.855 106.382 137.857 106.377 137.86 106.371C139.539 103.639 140.66 100.533 141.076 97.2027C141.292 95.8328 141.402 94.4295 141.402 92.9981C141.402 78.1625 129.431 66.1231 114.614 66C114.1 66.0026 113.589 66.0128 113.081 66.0308C113.053 66.0308 113.022 66.0308 112.991 66.0333C96.8048 66.6105 82.4336 74.3041 72.9118 86.0767C68.8299 91.1253 65.6363 96.9205 63.5774 103.229C64.2782 102.08 65.0535 100.982 65.893 99.9349C65.8982 99.9374 65.9007 99.9374 65.9033 99.94Z" fill="white"/>
<path d="M94.9642 169.044C94.9642 169.041 94.9642 169.041 94.9642 169.041C94.9668 169.041 94.9668 169.039 94.9668 169.039C94.9693 169.036 94.9719 169.031 94.9745 169.023C94.8897 168.972 94.8076 168.918 94.7254 168.864C88.3228 163.631 84.0279 155.922 83.3116 147.192C83.2397 146.335 83.2038 145.47 83.2038 144.596C83.2038 142.746 83.363 140.935 83.6736 139.175C85.4116 129.208 91.8604 120.863 100.643 116.507C108.016 112.852 108.981 102.877 102.781 98.0544C102.774 98.0493 102.766 98.0442 102.758 98.0365C102.322 97.7261 101.875 97.4285 101.416 97.1463C101.41 97.1437 101.405 97.1411 101.4 97.1386C98.6661 95.4608 95.5572 94.3398 92.225 93.9242C90.8541 93.7087 89.4498 93.5984 88.0173 93.5984C73.1711 93.5984 61.1232 105.561 61 120.368C61.0026 120.881 61.0128 121.392 61.0308 121.9C61.0308 121.928 61.0308 121.959 61.0334 121.989C61.611 138.164 69.3101 152.525 81.091 162.04C86.1433 166.119 91.9426 169.31 98.2554 171.368C97.1053 170.668 96.0065 169.893 94.9591 169.054C94.9616 169.049 94.9616 169.046 94.9642 169.044Z" fill="white"/>
<path d="M164.235 140.06C164.233 140.06 164.233 140.06 164.233 140.06C164.233 140.057 164.23 140.057 164.23 140.057C164.227 140.055 164.222 140.052 164.215 140.05C164.163 140.134 164.109 140.216 164.055 140.299C158.818 146.697 151.104 150.989 142.368 151.704C141.51 151.776 140.645 151.812 139.77 151.812C137.919 151.812 136.106 151.653 134.345 151.343C124.372 149.606 116.02 143.162 111.661 134.385C108.003 127.018 98.0217 126.053 93.1953 132.248C93.1902 132.256 93.1851 132.264 93.1774 132.272C92.8667 132.708 92.5689 133.154 92.2865 133.613C92.284 133.618 92.2814 133.623 92.2788 133.629C90.5999 136.361 89.478 139.467 89.0621 142.797C88.8465 144.167 88.7361 145.57 88.7361 147.002C88.7361 161.838 100.707 173.877 115.525 174C116.038 173.997 116.549 173.987 117.058 173.969C117.086 173.969 117.117 173.969 117.147 173.967C133.334 173.389 147.705 165.696 157.227 153.923C161.309 148.875 164.502 143.079 166.561 136.771C165.86 137.92 165.085 139.018 164.245 140.065C164.24 140.063 164.238 140.063 164.235 140.06Z" fill="white"/>
<path d="M135.036 70.9538C135.036 70.9563 135.036 70.9563 135.036 70.9563C135.033 70.9563 135.033 70.9589 135.033 70.9589C135.031 70.9614 135.028 70.9666 135.025 70.9743C135.11 71.0256 135.192 71.0795 135.274 71.1333C141.677 76.3667 145.972 84.0757 146.688 92.8057C146.76 93.6625 146.796 94.527 146.796 95.4018C146.796 97.2515 146.637 99.0626 146.326 100.822C144.588 110.789 138.139 119.134 129.357 123.49C121.984 127.146 121.019 137.12 127.219 141.943C127.226 141.948 127.234 141.953 127.242 141.961C127.678 142.271 128.125 142.569 128.584 142.851C128.589 142.854 128.595 142.856 128.6 142.859C131.334 144.537 134.443 145.658 137.775 146.073C139.146 146.289 140.55 146.399 141.983 146.399C156.829 146.399 168.877 134.437 169 119.629C168.997 119.116 168.987 118.606 168.969 118.098C168.969 118.07 168.969 118.039 168.967 118.008C168.389 101.833 160.69 87.4722 148.909 77.9572C143.857 73.8783 138.057 70.687 131.745 68.6295C132.895 69.3299 133.993 70.1046 135.041 70.9435C135.038 70.9486 135.038 70.9512 135.036 70.9538Z" fill="white"/>
<defs>
<filter id="filter0_d" x="-20" y="0" width="270" height="270" filterUnits="userSpaceOnUse" color-interpolation-filters="sRGB">
<feFlood flood-opacity="0" result="BackgroundImageFix"/>
<feColorMatrix in="SourceAlpha" type="matrix" values="0 0 0 0 0 0 0 0 0 0 0 0 0 0 0 0 0 0 127 0"/>
<feOffset dy="15"/>
<feGaussianBlur stdDeviation="22.5"/>
<feColorMatrix type="matrix" values="0 0 0 0 0.475417 0 0 0 0 0.495792 0 0 0 0 0.679167 0 0 0 0.45 0"/>
<feBlend mode="normal" in2="BackgroundImageFix" result="effect1_dropShadow"/>
<feBlend mode="normal" in="SourceGraphic" in2="effect1_dropShadow" result="shape"/>
</filter>
<linearGradient id="paint0_linear" x1="65.3302" y1="181.132" x2="153.972" y2="48.934" gradientUnits="userSpaceOnUse">
<stop stop-color="#221ECF"/>
<stop offset="1" stop-color="#E022FF"/>
</linearGradient>
</defs>
</svg>
